<svg xmlns="http://www.w3.org/2000/svg" version="1.1" xmlns:xlink="http://www.w3.org/1999/xlink" xmlns:svgjs="http://svgjs.dev/svgjs" width="1500" height="1500" viewBox="0 0 1500 1500"><rect width="1500" height="1500" fill="#ffffff"></rect><g transform="matrix(0.6666666666666666,0,0,0.6666666666666666,249.39393939393938,690.0755611180642)"><svg viewBox="0 0 396 47" data-background-color="#ffffff" preserveAspectRatio="xMidYMid meet" height="178" width="1500" xmlns="http://www.w3.org/2000/svg" xmlns:xlink="http://www.w3.org/1999/xlink"><g id="tight-bounds" transform="matrix(1,0,0,1,0.2400000000000091,0.23411764705883797)"><svg viewBox="0 0 395.52 46.53176470588235" height="46.53176470588235" width="395.52"><g><svg viewBox="0 0 395.52 46.53176470588235" height="46.53176470588235" width="395.52"><g><svg viewBox="0 0 395.52 46.53176470588235" height="46.53176470588235" width="395.52"><g id="textblocktransform"><svg viewBox="0 0 395.52 46.53176470588235" height="46.53176470588235" width="395.52" id="textblock"><g><svg viewBox="0 0 395.52 46.53176470588235" height="46.53176470588235" width="395.52"><g transform="matrix(1,0,0,1,0,0)"><svg width="395.52" viewBox="1.75 -35.75 310.23 36.5" height="46.53176470588235" data-palette-color="#398378"><path d="M14.75 0.75Q11.2 0.75 8.1-0.85L8.1-0.85Q6.7-1.55 5.75-2.5L5.75-2.5Q5.05-1.35 4-0.45L4-0.45Q3.1 0.2 3 0.25L3 0.25 1.75 0.25 1.75-9.25 3.75-9.25Q4.5-6.8 5.85-4.85L5.85-4.85Q8.9-0.5 13.75-0.5L13.75-0.5Q16.6-0.5 18.3-2.2 20-3.9 20-6.75L20-6.75Q20-8.4 19.03-9.7 18.05-11 16.6-12 15.15-13 12.55-14.5L12.55-14.5Q9.25-16.35 7.2-17.85 5.15-19.35 3.7-21.63 2.25-23.9 2.25-27L2.25-27Q2.25-29.45 3.63-31.43 5-33.4 7.75-34.58 10.5-35.75 14.5-35.75L14.5-35.75Q17.4-35.75 20.3-34.1L20.3-34.1Q21.4-33.5 22.5-32.5L22.5-32.5Q23.35-33.8 24.25-34.55L24.25-34.55Q25.15-35.2 25.25-35.25L25.25-35.25 26.5-35.25 26.5-25.75 24.5-25.75Q23.85-28.15 22.55-30.1L22.55-30.1Q21.35-32 19.58-33.25 17.8-34.5 15.5-34.5L15.5-34.5Q13.55-34.5 12.15-32.95 10.75-31.4 10.75-29L10.75-29Q10.75-27.15 11.83-25.68 12.9-24.2 14.48-23.1 16.05-22 18.75-20.45L18.75-20.45Q21.9-18.65 23.85-17.25 25.8-15.85 27.15-13.78 28.5-11.7 28.5-9L28.5-9Q28.5-6.3 26.95-4.08 25.4-1.85 22.3-0.55 19.2 0.75 14.75 0.75L14.75 0.75ZM31.75 0L31.75-0.75 34.75-1.5 34.75-33.5 31.75-34.25 31.75-35 38.25-35Q42.75-35 42.75-30.5L42.75-30.5 42.75-22.5Q43.5-23.5 44.3-24.1L44.3-24.1Q46.45-25.75 49.25-25.75L49.25-25.75Q52.05-25.75 54.27-24.58 56.5-23.4 57.75-21.5 59-19.6 59-17.5L59-17.5 59-1.5 62-0.75 62 0 55.5 0Q51 0 51-4.5L51-4.5 51-17.5Q51-20.65 49.87-22.33 48.75-24 47.25-24L47.25-24Q45.35-24 43.85-22L43.85-22Q43.2-21.15 42.75-20L42.75-20 42.75-1.5 45.75-0.75 45.75 0 31.75 0ZM74.75 0.75Q70.3 0.75 67.9-1.15 65.5-3.05 65.5-6L65.5-6Q65.5-7.95 66.34-9.85L66.34-9.85Q66.7-10.75 67.25-11.5L67.25-11.5Q69.3-12 71.7-12.4L71.7-12.4Q77.09-13.3 81.25-13.5L81.25-13.5 81.25-15Q81.25-20.55 79.9-22.65 78.55-24.75 75.75-24.75L75.75-24.75Q74.7-24.75 73.95-24.5L73.95-24.5 73.25-24.25 73.25-16.75 72.59-16.6Q71.8-16.5 71.25-16.5L71.25-16.5Q69.55-16.5 68.52-17.53 67.5-18.55 67.5-20.25L67.5-20.25Q67.5-22.55 69.82-24.15 72.15-25.75 76.75-25.75L76.75-25.75Q80.65-25.75 83.47-24.38 86.3-23 87.77-20.58 89.25-18.15 89.25-15L89.25-15 89.25-1.5 92.25-0.75 92.25 0 87.75 0Q84.75 0 83.09-1.85L83.09-1.85Q82.4-2.6 82-3.75L82-3.75Q81.3-2.5 80.34-1.5L80.34-1.5Q78.09 0.75 74.75 0.75L74.75 0.75ZM76.75-1Q78.59-1 80.09-3L80.09-3Q80.65-3.75 81.25-5L81.25-5 81.25-12.25Q78.95-12.25 76.84-12L76.84-12Q75.3-11.8 74.75-11.75L74.75-11.75Q74.5-11.2 74.25-10.25L74.25-10.25Q73.75-8.35 73.75-6.5L73.75-6.5Q73.75-3.7 74.59-2.35 75.45-1 76.75-1L76.75-1ZM95.24 0L95.24-0.75 98.24-1.5 98.24-33.5 95.24-34.25 95.24-35 101.74-35Q106.24-35 106.24-30.5L106.24-30.5 106.24-13 115.49-22.75 111.74-24.25 111.74-25 121.24-25 121.24-24.25 117.24-22.75 111.49-16.75 121.24-1.5 123.74-0.75 123.74 0 117.24 0Q114.84 0 113.34-1.05 111.84-2.1 110.49-4.25L110.49-4.25 106.24-11 106.24-1.5 109.24-0.75 109.24 0 95.24 0ZM125.24 0L125.24-0.75 128.24-1.5 128.24-33.5 125.24-34.25 125.24-35 131.74-35Q136.24-35 136.24-30.5L136.24-30.5 136.24-22.5Q136.99-23.5 137.79-24.1L137.79-24.1Q139.94-25.75 142.74-25.75L142.74-25.75Q145.54-25.75 147.77-24.58 149.99-23.4 151.24-21.5 152.49-19.6 152.49-17.5L152.49-17.5 152.49-1.5 155.49-0.75 155.49 0 148.99 0Q144.49 0 144.49-4.5L144.49-4.5 144.49-17.5Q144.49-20.65 143.37-22.33 142.24-24 140.74-24L140.74-24Q138.84-24 137.34-22L137.34-22Q136.69-21.15 136.24-20L136.24-20 136.24-1.5 139.24-0.75 139.24 0 125.24 0ZM158.49 0L158.49-0.75 161.49-1.5 161.49-23.5 158.49-24.25 158.49-25 162.99-25Q165.94-25 167.64-23.1L167.64-23.1Q168.29-22.35 168.74-21.25L168.74-21.25Q169.49-22.35 170.59-23.25L170.59-23.25Q173.09-25.25 176.19-25.25L176.19-25.25Q178.84-25.25 180.16-24.03 181.49-22.8 181.49-20.5L181.49-20.5Q181.49-18.8 180.46-17.78 179.44-16.75 177.74-16.75L177.74-16.75Q177.04-16.75 176.34-16.85L176.34-16.85 175.74-17 175.74-24Q173.19-24 171.09-22L171.09-22Q170.09-21 169.49-20L169.49-20 169.49-1.5 172.49-0.75 172.49 0 158.49 0ZM183.74 0L183.74-0.75 186.74-1.5 186.74-23.5 183.74-24.25 183.74-25 190.24-25Q194.74-25 194.74-20.5L194.74-20.5 194.74-1.5 197.74-0.75 197.74 0 183.74 0ZM190.24-28Q188.74-28 187.74-29 186.74-30 186.74-31.5L186.74-31.5Q186.74-33 187.74-34 188.74-35 190.24-35L190.24-35Q191.74-35 192.74-34 193.74-33 193.74-31.5L193.74-31.5Q193.74-30 192.74-29 191.74-28 190.24-28L190.24-28ZM212.48 0.75Q209.38 0.75 206.93-0.6L206.93-0.6Q205.73-1.25 204.98-2L204.98-2Q204.18-0.9 203.23-0.3L203.23-0.3Q202.78 0 202.23 0.25L202.23 0.25 200.98 0.25 200.98-8.25 202.98-8.25Q203.63-6.15 204.88-4.35L204.88-4.35Q207.53-0.5 211.48-0.5L211.48-0.5Q213.58-0.5 214.66-1.53 215.73-2.55 215.73-4.5L215.73-4.5Q215.73-6.15 214.26-7.28 212.78-8.4 209.63-10.05L209.63-10.05Q206.93-11.4 205.26-12.48 203.58-13.55 202.41-15.18 201.23-16.8 201.23-19L201.23-19Q201.23-22 203.81-23.88 206.38-25.75 211.73-25.75L211.73-25.75Q214.38-25.75 216.63-24.35L216.63-24.35Q217.73-23.7 218.53-23L218.53-23Q219.18-23.9 220.28-24.7L220.28-24.7Q221.13-25.2 221.28-25.25L221.28-25.25 222.53-25.25 222.53-16.75 220.53-16.75Q219.78-18.9 218.68-20.6L218.68-20.6Q216.18-24.5 212.73-24.5L212.73-24.5Q211.38-24.5 210.43-23.5 209.48-22.5 209.48-21L209.48-21Q209.48-19.1 211.08-17.82 212.68-16.55 215.93-14.9L215.93-14.9Q218.58-13.55 220.16-12.53 221.73-11.5 222.86-10 223.98-8.5 223.98-6.5L223.98-6.5Q223.98 0.75 212.48 0.75L212.48 0.75ZM237.48 0.75Q233.03 0.75 230.63-1.15 228.23-3.05 228.23-6L228.23-6Q228.23-7.95 229.08-9.85L229.08-9.85Q229.43-10.75 229.98-11.5L229.98-11.5Q232.03-12 234.43-12.4L234.43-12.4Q239.83-13.3 243.98-13.5L243.98-13.5 243.98-15Q243.98-20.55 242.63-22.65 241.28-24.75 238.48-24.75L238.48-24.75Q237.43-24.75 236.68-24.5L236.68-24.5 235.98-24.25 235.98-16.75 235.33-16.6Q234.53-16.5 233.98-16.5L233.98-16.5Q232.28-16.5 231.26-17.53 230.23-18.55 230.23-20.25L230.23-20.25Q230.23-22.55 232.56-24.15 234.88-25.75 239.48-25.75L239.48-25.75Q243.38-25.75 246.21-24.38 249.03-23 250.51-20.58 251.98-18.15 251.98-15L251.98-15 251.98-1.5 254.98-0.75 254.98 0 250.48 0Q247.48 0 245.83-1.85L245.83-1.85Q245.13-2.6 244.73-3.75L244.73-3.75Q244.03-2.5 243.08-1.5L243.08-1.5Q240.83 0.75 237.48 0.75L237.48 0.75ZM239.48-1Q241.33-1 242.83-3L242.83-3Q243.38-3.75 243.98-5L243.98-5 243.98-12.25Q241.68-12.25 239.58-12L239.58-12Q238.03-11.8 237.48-11.75L237.48-11.75Q237.23-11.2 236.98-10.25L236.98-10.25Q236.48-8.35 236.48-6.5L236.48-6.5Q236.48-3.7 237.33-2.35 238.18-1 239.48-1L239.48-1ZM274.48 0.75Q271.13 0.75 268.88-1.5L268.88-1.5Q267.93-2.5 267.23-3.75L267.23-3.75Q266.88-2.65 266.03-1.75L266.03-1.75Q264.13 0.25 260.48 0.25L260.48 0.25 259.98 0.25 259.98-33.5 256.98-34.25 256.98-35 263.48-35Q267.98-35 267.98-30.5L267.98-30.5 267.98-23.75Q268.78-24.4 269.53-24.75L269.53-24.75Q271.33-25.75 273.73-25.75L273.73-25.75Q278.78-25.75 281.75-22.33 284.73-18.9 284.73-12.5L284.73-12.5Q284.73-8.25 283.38-5.28 282.03-2.3 279.73-0.78 277.43 0.75 274.48 0.75L274.48 0.75ZM272.48-1Q274.08-1 275.15-3.53 276.23-6.05 276.23-12.5L276.23-12.5Q276.23-19.25 275.05-21.75 273.88-24.25 271.73-24.25L271.73-24.25Q270.43-24.25 269.08-23.25L269.08-23.25Q268.68-22.95 267.98-22.25L267.98-22.25 267.98-5Q268.43-3.85 269.08-3L269.08-3Q270.58-1 272.48-1L272.48-1ZM288.73 0L288.73-1.25 302.98-23.75 293.98-23.75Q293.98-21 292.33-18.2L292.33-18.2Q291.68-17.15 290.73-16.25L290.73-16.25 289.23-16.25 289.23-25 311.98-25 311.98-23.75 297.73-1.25 307.23-1.25Q307.23-4.1 308.83-6.8L308.83-6.8Q309.53-7.95 310.48-8.75L310.48-8.75 311.98-8.75 311.98 0 288.73 0Z" opacity="1" transform="matrix(1,0,0,1,0,0)" fill="#398378" class="wordmark-text-0" data-fill-palette-color="primary" id="text-0"></path></svg></g></svg></g></svg></g></svg></g></svg></g><defs></defs></svg><rect width="395.52" height="46.53176470588235" fill="none" stroke="none" visibility="hidden"></rect></g></svg></g></svg>